<svg width="9" height="14" viewBox="0 0 9 14" fill="none" xmlns="http://www.w3.org/2000/svg">
<path d="M1.8 10.8483C1.8 10.8483 0 5.67413 0 3.08706C0 0.5 1.2 0.5 1.2 0.5H1.8C1.8 0.5 2.4 0.5 2.4 1.14677C2.4 1.79353 1.8 1.79353 1.8 3.08706C1.8 4.3806 3.6 5.67413 3.6 7.61443C3.6 9.55473 1.8 10.8483 1.8 10.8483ZM4.8 10.2015C4.2 10.2015 2.4 11.8184 2.4 11.8184C2.22 11.9478 2.28 12.1418 2.4 12.3358C2.4 12.3358 3 13.5 4.2 13.5H7.8C8.46 13.5 9 12.9179 9 12.2065V11.5597C9 10.8483 8.46 10.2662 7.8 10.2662H4.8V10.2015Z" fill="#686869"/>
</svg>
