<svg width="36" height="36" viewBox="0 0 36 36" fill="none" xmlns="http://www.w3.org/2000/svg">
<path d="M33.795 17.987C33.795 17.987 33.6668 17.4743 33.5386 17.0898C33.2823 16.449 33.026 16.0645 32.3851 15.9363C31.6161 15.68 30.719 15.8082 29.8218 15.8082C29.6936 15.8082 29.5655 15.8082 29.4373 15.8082C29.2541 15.8082 29.149 15.68 29.0528 15.5518C28.8879 15.3321 28.7414 15.1856 28.6132 15.0575C28.3569 14.8011 28.1555 14.5997 27.7893 14.3251C27.4047 13.9223 25.8486 12.9885 24.6951 12.7322C23.5416 12.4758 22.2599 12.3477 21.1064 12.3477C20.3374 12.3477 19.8248 12.3477 18.5431 12.4758C16.3643 12.8603 14.4418 13.8857 12.7756 15.2955C12.5192 15.4237 12.5192 15.4237 12.3911 15.4237C10.9812 15.4237 9.69959 15.5518 8.28969 15.68C7.13619 15.8082 6.11089 16.0645 4.95739 16.449C4.31659 16.7053 3.80389 16.9617 3.29119 17.3462C2.77859 17.7307 2.65039 18.756 2.65039 19.3968C2.77859 20.4222 3.16309 21.9602 4.44469 21.9602H5.31429C5.31429 21.9221 5.28249 21.6112 5.31429 21.2827C5.45959 19.7813 6.45869 18.7194 8.01499 18.7194C9.47969 18.7194 10.4868 19.6349 10.6699 21.2827C10.6981 21.537 10.6699 21.6489 10.6699 21.9602H24.6951C24.6951 21.832 24.6951 21.5757 24.6951 21.4475C24.6951 19.9095 25.9768 18.756 27.3866 18.756C29.1077 18.756 30.1147 20.0377 30.1147 21.4475C30.1147 21.5757 30.1147 21.832 30.1147 21.9602C30.8837 21.9602 31.8103 21.9602 32.3851 21.832C32.5976 21.7846 32.7427 21.7555 32.8978 21.7038C33.2823 21.5757 33.5386 21.3193 33.795 21.063C34.0513 20.6785 34.1795 20.294 34.1795 19.7813C34.1795 19.3968 33.8264 18.1969 33.9231 18.4997C34.0199 18.8024 33.795 18.1152 33.795 17.987ZM19.7355 13.6293C19.6805 13.7758 19.6783 13.7758 19.5867 14.0504C19.4196 14.5518 19.2205 15.0575 19.0558 15.5518C19.0134 15.6788 18.9276 15.68 18.7994 15.68H14.0572C15.7234 13.8857 18.0304 13.373 19.8248 13.373L19.7355 13.6293ZM20.4656 15.68C20.5022 15.5518 20.5938 15.2406 20.5938 15.2406C20.7219 14.7279 20.8501 14.2702 21.1064 13.6293C21.1543 13.5097 21.188 13.4443 21.2296 13.4096C21.2643 13.3806 21.3044 13.373 21.3628 13.373C22.2599 13.373 22.9008 13.4645 23.7979 13.5927C23.981 13.6189 23.9517 13.6293 24.0543 13.8857C24.3106 14.5265 24.5303 15.149 24.6951 15.8082L20.4656 15.68ZM25.8486 15.68C25.5923 15.68 25.5923 15.5518 25.5923 15.5518C25.3359 15.0392 25.2078 14.3983 24.9514 13.8857C26.1049 14.142 27.3866 14.911 27.6429 15.68H25.8486Z" fill="#686869"/>
<path d="M8.02421 19.2578C6.79061 19.2578 5.78131 20.2671 5.78131 21.5007C5.78131 22.7343 6.79061 23.7436 8.02421 23.7436C9.25781 23.7436 10.2671 22.7343 10.2671 21.5007C10.2671 20.2671 9.25781 19.2578 8.02421 19.2578Z" fill="#686869"/>
<path d="M27.4148 19.2578C26.1812 19.2578 25.1719 20.2671 25.1719 21.5007C25.1719 22.7343 26.1812 23.7436 27.4148 23.7436C28.6484 23.7436 29.6577 22.7343 29.6577 21.5007C29.6577 20.2671 28.6484 19.2578 27.4148 19.2578Z" fill="#686869"/>
</svg>
