<svg width="23" height="22" viewBox="0 0 23 22" fill="none" xmlns="http://www.w3.org/2000/svg">
<circle cx="11.1893" cy="11" r="11" fill="#644BE4"/>
<path d="M9.16416 15.3933L9.16417 15.3933L9.16186 15.3908L5.11217 11.0828C5.11211 11.0827 5.11205 11.0827 5.11199 11.0826C5.05145 11.018 5.01902 10.932 5.02184 10.8435C5.02465 10.7549 5.06255 10.671 5.12719 10.6104C5.19183 10.5497 5.27791 10.5172 5.36651 10.52C5.4551 10.5229 5.53895 10.5608 5.59961 10.6254L5.59963 10.6254L9.03297 14.2838L9.40238 14.6774L9.7666 14.2789L16.7749 6.61228L16.7857 6.60047L16.7957 6.588C16.8242 6.55257 16.8596 6.52333 16.8997 6.50208C16.9399 6.48084 16.984 6.46802 17.0293 6.46442C17.0746 6.46083 17.1201 6.46653 17.1631 6.48118C17.2061 6.49583 17.2457 6.51912 17.2794 6.54961C17.3131 6.58011 17.3401 6.61717 17.359 6.65851C17.3778 6.69986 17.388 6.74462 17.3889 6.79004C17.3898 6.83547 17.3814 6.8806 17.3643 6.92267C17.3471 6.96474 17.3215 7.00285 17.2891 7.03467L17.2793 7.04421L17.2702 7.05426L9.65349 15.3876L9.65348 15.3876L9.65134 15.39C9.62055 15.4241 9.58304 15.4515 9.54117 15.4704C9.50003 15.489 9.45555 15.499 9.41043 15.4999H9.40682C9.36134 15.4997 9.3164 15.4901 9.27474 15.4719C9.23288 15.4535 9.19524 15.4268 9.16416 15.3933Z" fill="#231F20" stroke="white"/>
</svg>
