<svg width="41" height="40" viewBox="0 0 41 40" fill="none" xmlns="http://www.w3.org/2000/svg">
<path d="M30.75 9.99994V10.0169" stroke="#644BE4" stroke-width="2" stroke-linecap="round" stroke-linejoin="round"/>
<path d="M30.7498 21.6667L24.7707 13.3334C24.1951 12.3184 23.9009 11.1745 23.9171 10.0147C23.9334 8.85486 24.2596 7.71924 24.8634 6.72003C25.4672 5.72083 26.3278 4.89262 27.3602 4.31723C28.3925 3.74185 29.5609 3.43921 30.7498 3.43921C31.9388 3.43921 33.1071 3.74185 34.1395 4.31723C35.1718 4.89262 36.0324 5.72083 36.6363 6.72003C37.2401 7.71924 37.5663 8.85486 37.5825 10.0147C37.5988 11.1745 37.3046 12.3184 36.729 13.3334L30.7498 21.6667Z" stroke="#644BE4" stroke-width="2" stroke-linejoin="round"/>
<path d="M17.9376 7.91675L15.3751 6.66675L5.12505 11.6667V33.3334L15.3751 28.3334L25.6251 33.3334L35.8751 28.3334V25.0001" stroke="#644BE4" stroke-width="2" stroke-linecap="round" stroke-linejoin="round"/>
<path d="M15.3751 6.66675V28.3334" stroke="#644BE4" stroke-width="2" stroke-linecap="round" stroke-linejoin="round"/>
<path d="M25.6249 25V33.3333" stroke="#644BE4" stroke-width="2" stroke-linecap="round" stroke-linejoin="round"/>
</svg>
