<svg width="19" height="24" viewBox="0 0 19 24" fill="none" xmlns="http://www.w3.org/2000/svg">
<path fill-rule="evenodd" clip-rule="evenodd" d="M9.10887 23.8784C9.10914 23.8786 9.10935 23.8787 9.5 23.3336L9.10887 23.8784ZM9.89113 23.8784L9.89357 23.8767L9.89975 23.8725L9.92132 23.8572C9.93985 23.8442 9.96652 23.8253 10.0007 23.8006C10.0691 23.7512 10.1678 23.6788 10.2926 23.5846C10.5421 23.3962 10.8959 23.1199 11.3193 22.7642C12.1652 22.0536 13.2938 21.0221 14.4241 19.7375C16.6684 17.1868 19 13.5465 19 9.38472C19 6.89703 18.0001 4.51039 16.2189 2.7501C14.4376 0.989707 12.0208 0 9.5 0C6.97917 0 4.56237 0.989707 2.78106 2.7501C0.999943 4.51039 0 6.89703 0 9.38472C0 13.5465 2.33164 17.1868 4.57595 19.7375C5.70624 21.0221 6.83477 22.0536 7.68068 22.7642C8.10411 23.1199 8.45792 23.3962 8.70736 23.5846C8.83215 23.6788 8.93088 23.7512 8.99928 23.8006C9.03348 23.8253 9.06015 23.8442 9.07868 23.8572L9.10025 23.8725L9.10643 23.8767L9.10887 23.8784C9.34318 24.0405 9.65682 24.0405 9.89113 23.8784ZM9.5 23.3336L9.89113 23.8784C9.89086 23.8786 9.89065 23.8787 9.5 23.3336ZM12.8929 9.33346C12.8929 11.1744 11.3738 12.6668 9.5 12.6668C7.62619 12.6668 6.10714 11.1744 6.10714 9.33346C6.10714 7.4925 7.62619 6.00008 9.5 6.00008C11.3738 6.00008 12.8929 7.4925 12.8929 9.33346Z" fill="#644BE4"/>
</svg>
